<svg xmlns="http://www.w3.org/2000/svg" viewBox="0 0 533.5 544.3" width="20" height="20">
  <path fill="#4285F4" d="M533.5 278.4c0-17.4-1.4-34.5-4.2-51H272v96.8h146.9c-6.3 34.1-25.6 62.9-54.7 82.3v68h88.4c51.6-47.5 80.9-117.5 80.9-196.1z"></path>
  <path fill="#34A853" d="M272 544.3c73.8 0 135.7-24.5 180.9-66.5l-88.4-68c-24.6 16.6-56 26.4-92.5 26.4-71 0-131-47.9-152.4-112.3H27.1v70.6C72.6 481.1 165.8 544.3 272 544.3z"></path>
  <path fill="#FBBC05" d="M119.6 323.9c-10.7-31.9-10.7-66.1 0-98l-92.5-70.6C4 212.4 0 240.7 0 272s4 59.6 27.1 116.7l92.5-70.6z"></path>
  <path fill="#EA4335" d="M272 107.5c39.9 0 75.7 13.8 103.9 40.9l77.6-77.6C409.3 24.6 345.7 0 272 0 165.8 0 72.6 63.2 27.1 155.4l92.5 70.6C141 155.4 201 107.5 272 107.5z"></path>
</svg>
